<?xml version="1.0" encoding="UTF-8"?>
<svg xmlns="http://www.w3.org/2000/svg" viewBox="0 0 830.99 553.03">
  <defs><style>.cls-1 { fill: #fbe7b9; }</style></defs>
  <g transform="translate(291.59,31.50) scale(1.2501)">
      <path class="cls-1" d="M198.23,0v27.92h-97.64c.54-2,1.24-3.94,2.07-5.79,1.94-4.33,4.84-8.29,8.56-11.6.39-.34.8-.7,1.23-1.06C119.85,3.34,129.67,0,139.83,0h58.41Z"/>
      <path class="cls-1" d="M0,147.17v27.83h73.1c-.41-1.99-.92-3.92-1.55-5.78-1.45-4.32-3.62-8.26-6.41-11.56-.29-.34-.6-.7-.92-1.06-5.53-6.1-12.89-9.44-20.49-9.44H0Z"/>
      <path class="cls-1" d="M198.23,44.09v31.74h-79.41c-5.03,0-10.03-.9-14.69-2.78-12.57-5.08-22.28-15.77-26.04-28.96l-.02-.05c-1.13-3.95-3.94-7.22-7.71-8.84-3.47-1.49-7.16-2.54-11.02-3.1-1.77-.26-3.55-.35-5.34-.35H0S0,0,0,0h34.13c20.12,0,37.11,13.39,42.54,31.74.07.22.13.44.19.66,1.1,3.91,3.91,7.14,7.65,8.71.42.17.84.34,1.26.51.03.01.06.02.09.04,4.36,1.66,9,2.45,13.66,2.45h98.7Z"/>
      <path class="cls-1" d="M198.23,93.12v31.74h-79.41c-5.03,0-10.03-.9-14.69-2.78-12.57-5.08-22.28-15.77-26.04-28.96l-.02-.05c-1.13-3.95-3.94-7.22-7.71-8.84-3.47-1.49-7.16-2.54-11.02-3.1-1.77-.26-3.55-.35-5.34-.35H0s0-31.74,0-31.74h34.13c20.12,0,37.11,13.39,42.54,31.74.07.22.13.44.19.66,1.1,3.91,3.91,7.14,7.65,8.71.42.17.84.34,1.26.51.03.01.06.02.09.04,4.36,1.66,9,2.45,13.66,2.45h98.7Z"/>
      <path class="cls-1" d="M198.23,143.26v31.74h-79.41c-5.03,0-10.03-.9-14.69-2.78-12.57-5.08-22.28-15.77-26.04-28.96l-.02-.05c-1.13-3.95-3.94-7.22-7.71-8.84-3.47-1.49-7.16-2.54-11.02-3.1-1.77-.26-3.55-.35-5.34-.35H0s0-31.74,0-31.74h34.13c20.12,0,37.11,13.39,42.54,31.74.07.22.13.44.19.66,1.1,3.91,3.91,7.14,7.65,8.71.42.17.84.34,1.26.51.03.01.06.02.09.04,4.36,1.66,9,2.45,13.66,2.45h98.7Z"/>
  </g>
  <g transform="translate(-216.16,335.18)">
      <path class="cls-1" d="M343.84,18.22h17.13v132.4h-14.6l-81.48-103.49v103.49h-17.23V18.22h14.51l81.58,103.78h.1V18.22Z"/>
      <path class="cls-1" d="M615.83,14.03h16.52v135.43h-16.52V14.03Z"/>
      <path class="cls-1" d="M646.44,29.35c-2.05-2.02-3.07-4.53-3.07-7.54s1.02-5.43,3.07-7.44c2.05-2.02,4.77-3.03,8.16-3.03s6.13,1.01,8.21,3.03c2.08,2.02,3.12,4.5,3.12,7.44s-1.04,5.52-3.12,7.54c-2.08,2.02-4.85,3.03-8.31,3.03s-6.02-1.01-8.07-3.03ZM646.35,51.49h16.52v97.97h-16.52V51.49Z"/>
      <path class="cls-1" d="M674.19,51.49h17.58l27.66,69.15,2.4,8.74,2.31-8.74,27.66-69.15h17.67l-39.86,97.97h-15.66l-39.76-97.97Z"/>
      <path class="cls-1" d="M781.96,29.35c-2.05-2.02-3.07-4.53-3.07-7.54s1.02-5.43,3.07-7.44c2.05-2.02,4.77-3.03,8.16-3.03s6.13,1.01,8.21,3.03,3.12,4.5,3.12,7.44-1.04,5.52-3.12,7.54-4.85,3.03-8.31,3.03-6.02-1.01-8.07-3.03ZM781.87,51.49h16.52v97.97h-16.52V51.49Z"/>
      <path class="cls-1" d="M827.51,51.49v18.92c1.86-4.23,4.58-7.97,8.16-11.24,3.59-3.27,7.78-5.83,12.58-7.68,4.8-1.86,9.92-2.79,15.37-2.79,13,0,22.86,4.03,29.58,12.1,6.72,8.07,10.09,19.92,10.09,35.54v53.11h-16.52v-52.83c0-11.01-2.37-19.18-7.11-24.49-4.74-5.31-11.49-7.97-20.27-7.97-5.51,0-10.65,1.38-15.42,4.13-4.77,2.75-8.6,6.71-11.48,11.86-2.88,5.15-4.32,11.09-4.32,17.82v51.48h-16.52V51.49h15.85Z"/>
      <path class="cls-1" d="M938.82,181.2c-6.92-3.43-12.05-7.88-15.42-13.35-3.36-5.47-5.23-11.42-5.62-17.82h15.66c1.09,6.59,4.11,11.94,9.08,16.04,4.96,4.1,12.41,6.15,22.33,6.15,8.07,0,14.71-1.63,19.93-4.9,5.22-3.27,9.03-7.56,11.43-12.87,2.4-5.31,3.6-11.2,3.6-17.67v-12.1c-3.39,7.3-8.47,12.95-15.22,16.95-6.76,4-14.36,6-22.81,6-9.03,0-17.21-2.19-24.54-6.58-7.33-4.38-13.09-10.33-17.29-17.82-4.19-7.49-6.29-15.69-6.29-24.59s2.08-17.08,6.24-24.73c4.16-7.65,9.88-13.75,17.14-18.3,7.27-4.55,15.35-6.82,24.25-6.82,6.02,0,11.59,1.06,16.71,3.17,5.12,2.11,9.54,4.96,13.25,8.55,3.71,3.59,6.56,7.59,8.55,12.01v-21.03h15.85v84.81c0,9.35-1.89,17.8-5.67,25.36-3.78,7.55-9.49,13.56-17.14,18.01-7.65,4.45-16.98,6.68-28,6.68-10.44,0-19.11-1.71-26.03-5.14ZM982,128.37c5.28-3.11,9.48-7.28,12.58-12.53,3.11-5.25,4.66-10.98,4.66-17.19s-1.54-11.85-4.61-17.1c-3.07-5.25-7.25-9.44-12.53-12.58-5.28-3.14-11.06-4.71-17.34-4.71s-12.17,1.5-17.48,4.51c-5.31,3.01-9.51,7.12-12.58,12.34-3.07,5.22-4.61,11.06-4.61,17.53s1.54,12.23,4.61,17.48c3.07,5.25,7.25,9.38,12.53,12.39,5.28,3.01,11.09,4.51,17.43,4.51s12.05-1.55,17.34-4.66Z"/>
      <path class="cls-1" d="M469.79,105.79c-1.59,1.83-5.99,3.01-8.04,3.6-6.02,1.74-12.47,1.71-18.62.74-9.38-1.47-25.61-9.63-34.89-11.63-7.76-1.67-15.98.12-18.09,5.49-2.46,6.26.74,15.45,3.23,19.29,3.19,4.92,7.21,8.71,12.06,11.38,4.85,2.67,10.01,4,15.48,4,6.71,0,12.43-1.45,17.19-4.35,4.75-2.9,8.23-7.14,10.45-12.74h18.85c-1.89,6.12-5.05,11.67-9.47,16.65-4.43,4.98-9.8,8.9-16.11,11.77-6.31,2.86-13.15,4.3-20.51,4.3-9.44,0-18.03-2.34-25.78-7.03-7.75-4.69-13.83-11.03-18.26-19.04-4.43-8.01-6.64-16.83-6.64-26.46s2.23-18.39,6.69-26.46c4.46-8.07,10.55-14.45,18.26-19.14,7.71-4.69,16.29-7.03,25.73-7.03s17.72,2.29,25.24,6.88c7.52,4.59,13.39,10.73,17.63,18.41,4.23,7.68,6.35,15.98,6.35,24.9,0,1.68.39,4.81-.48,6.15-.07.11-.16.22-.25.33ZM452.88,91.07c.42-.79.28-1.63.02-2.92-.74-3.61-2.36-6.98-4.55-9.93-2.99-4.04-6.92-7.26-11.77-9.67-4.85-2.41-10.04-3.61-15.57-3.61-5.08,0-9.86,1.03-14.35,3.08-4.49,2.05-8.35,5.06-11.57,9.03-1.61,1.98-2.97,4.16-4.06,6.47-.8,1.68-2.98,5.64-2.31,7.46,1.1-.22,2.39-1.44,3.39-2.06,1.21-.75,2.45-1.47,3.73-2.1,2.52-1.25,5.22-2.18,8.04-2.41,4.99-.41,9.9,1.39,14.41,3.58,4.51,2.18,8.87,4.79,13.68,6.17,5.03,1.44,10.45,1.48,15.49.1,1.5-.41,3.04-.97,4.28-1.94.56-.44.92-.83,1.13-1.24Z"/>
      <path class="cls-1" d="M503.32,147.36c-7.91-4.69-14.13-11.05-18.65-19.09-4.52-8.04-6.79-16.88-6.79-26.51s2.26-18.39,6.79-26.46c4.52-8.07,10.72-14.45,18.6-19.14,7.88-4.69,16.67-7.03,26.36-7.03s18.52,2.34,26.46,7.03c7.94,4.69,14.18,11.05,18.7,19.09,4.52,8.04,6.79,16.88,6.79,26.51s-2.26,18.47-6.79,26.51c-4.52,8.04-10.74,14.4-18.65,19.09-7.91,4.69-16.75,7.03-26.51,7.03s-18.41-2.34-26.32-7.03ZM547.6,133.78c5.34-3.19,9.54-7.58,12.6-13.18,3.06-5.6,4.59-11.88,4.59-18.85s-1.53-13.15-4.59-18.75c-3.06-5.6-7.26-10.01-12.6-13.23-5.34-3.22-11.26-4.83-17.77-4.83s-12.45,1.61-17.82,4.83c-5.37,3.22-9.6,7.63-12.69,13.23-3.09,5.6-4.64,11.85-4.64,18.75s1.55,13.25,4.64,18.85c3.09,5.6,7.32,9.99,12.69,13.18,5.37,3.19,11.31,4.78,17.82,4.78s12.43-1.59,17.77-4.78Z"/>
  </g>
</svg>
